<svg width="256" height="273" fill="none" xmlns="http://www.w3.org/2000/svg"><path d="M131.167 101.371c-10.061-31.153 15.842-76.184 46.67-80.06 6.815-.849 14.058-.074 19.802 3.728 27.795 18.382-3.175 95.23-10.989 118.152-11.168 32.776-24.37 64.778-38.356 96.373-2.034 4.614-3.961 9.339-6.708 13.436-27.581-21.999-52.77-53.262-74.821-81.167-20.088-25.431-77.07-93.347-47.348-127.305 4.246-4.835 10.098-7.862 16.128-9.892 15.628-5.241 33.147-4.17 48.06 2.953 23.407 11.147 39.641 39.273 47.562 63.782z" fill="#E73227"/></svg>