<svg width="206" height="56" fill="none" xmlns="http://www.w3.org/2000/svg"><path d="M63.017 8.542V1.964h4.345v1.042h-3.095v1.548h1.072c.357 0 .684.03.982.119.297.09.565.208.774.357.208.179.386.357.506.625.119.238.178.536.178.893s-.06.655-.208.893c-.12.268-.298.476-.536.625a1.845 1.845 0 01-.774.357c-.297.09-.625.119-.952.119h-2.292zm2.202-1.071c.387 0 .715-.09.953-.239a.801.801 0 00.387-.714.865.865 0 00-.09-.417.846.846 0 00-.267-.297c-.12-.09-.268-.12-.417-.179-.149-.06-.327-.06-.506-.06h-1.012v1.906h.953zm4.346 1.071h-1.31l2.679-6.578h1.25l2.709 6.578h-1.34l-1.964-4.94-2.024 4.94z" fill="#C60205"/><path d="M76.053 8.542h-1.34l2.798-6.578h1.19l2.769 6.578H80.1l-.594-1.458h-2.888l-.565 1.458zm.952-2.5h2.173l-1.071-2.768-1.102 2.768zm6.4 2.5h-1.22V1.964h3.988v1.072h-2.768v5.506zm10.506-3.333c0 .506-.09.982-.268 1.428a2.887 2.887 0 01-.744 1.101 3.66 3.66 0 01-1.131.715 3.552 3.552 0 01-1.399.268c-.506 0-.982-.09-1.399-.268a4.048 4.048 0 01-1.13-.715c-.328-.297-.566-.684-.745-1.1a3.614 3.614 0 01-.268-1.43c0-.505.09-.982.268-1.398a3.43 3.43 0 01.744-1.102 3.66 3.66 0 011.131-.714c.417-.178.893-.238 1.4-.238.505 0 .981.09 1.398.238.417.179.804.417 1.131.714.327.298.566.655.744 1.102.179.416.268.893.268 1.399zm-1.31 0c0-.328-.06-.625-.148-.923a2.603 2.603 0 00-.447-.744 1.826 1.826 0 00-.714-.506 2.319 2.319 0 00-.923-.179c-.327 0-.625.06-.922.179a1.944 1.944 0 00-.685.506 2.605 2.605 0 00-.447.744c-.118.298-.148.595-.148.923 0 .327.06.654.148.922.09.268.268.536.447.744.178.209.417.387.684.506.268.12.566.179.923.179.357 0 .625-.06.923-.179a2.4 2.4 0 00.714-.506c.209-.208.357-.476.447-.744a2.86 2.86 0 00.148-.922zm5.031 3.333h-1.22V3.006h-1.995V1.964h5.238v1.042h-1.994v5.536h-.03zm2.827-6.607h2.352c.267 0 .506.03.773.089.268.06.506.149.715.268.208.119.387.297.506.506.119.208.208.506.208.833 0 .357-.089.655-.298.893a1.62 1.62 0 01-.803.506v.03c.208.03.387.089.536.178.178.09.327.179.446.328.119.119.238.297.298.476.059.179.119.387.119.595 0 .328-.06.625-.209.834-.119.238-.297.416-.535.595a2.179 2.179 0 01-.804.327 4.87 4.87 0 01-.952.12h-2.352V1.934zm1.191 2.738h1.042c.148 0 .297-.03.446-.06a.989.989 0 00.357-.149.7.7 0 00.238-.267c.06-.12.09-.238.09-.417a.754.754 0 00-.328-.655c-.208-.149-.536-.208-.893-.208h-.952v1.756zm0 2.857h1.042c.178 0 .357-.03.506-.06.178-.03.327-.089.446-.148.119-.09.238-.179.327-.298.09-.119.119-.298.119-.476 0-.327-.119-.595-.357-.744-.238-.149-.565-.238-.982-.238h-1.071V7.53h-.03zm11.607-2.321c0 .506-.089.982-.268 1.428-.178.417-.416.804-.744 1.101a3.65 3.65 0 01-1.131.715 3.553 3.553 0 01-1.399.268c-.506 0-.982-.09-1.399-.268a4.067 4.067 0 01-1.131-.715c-.327-.297-.565-.684-.744-1.1-.178-.417-.267-.894-.267-1.43 0-.505.089-.982.267-1.398a3.45 3.45 0 01.744-1.102 3.674 3.674 0 011.131-.714c.417-.178.893-.238 1.399-.238s.982.09 1.399.238c.417.179.804.417 1.131.714.328.298.566.655.744 1.102.179.416.268.893.268 1.399zm-1.309 0c0-.328-.06-.625-.149-.923-.09-.298-.268-.536-.447-.744a1.819 1.819 0 00-.714-.506 2.426 2.426 0 00-.923-.179c-.327 0-.625.06-.922.179a1.953 1.953 0 00-.685.506 2.613 2.613 0 00-.446.744c-.119.298-.149.595-.149.923 0 .327.059.654.149.922.089.268.268.536.446.744.179.209.417.387.685.506.268.12.565.179.922.179.328 0 .625-.06.923-.179.268-.119.506-.297.714-.506.209-.208.357-.476.447-.744.089-.268.149-.565.149-.922zm2.5-3.274h2.202c.357 0 .685.03.982.119.298.06.566.178.774.327.208.149.387.357.506.595s.179.536.179.893-.06.655-.179.893a1.47 1.47 0 01-.536.595 3.071 3.071 0 01-.774.358 4.86 4.86 0 01-.952.119h-.952v2.708h-1.221V1.935h-.029zm1.25 2.887h.863c.387 0 .714-.06.952-.209s.387-.387.387-.744a1 1 0 00-.089-.446.85.85 0 00-.268-.298 1.35 1.35 0 00-.417-.149 2.666 2.666 0 00-.535-.06h-.864v1.906h-.029zm5.744 1.994l3.185-4.881h1.429v6.577h-1.221v-4.88h-.03l-3.184 4.88h-1.429V1.935h1.22l.03 4.88zm8.631 1.726h-1.22V3.006h-1.994V1.964h5.238v1.042h-1.994v5.536h-.03zm4.018-1.072h3.244v1.042H132.9V1.935h4.286v1.041h-3.095v1.637h2.917v1.012h-2.917v1.846zm4.911 1.072h-1.31l2.679-6.578h1.25l2.709 6.578h-1.34l-1.964-4.94-2.024 4.94zm5.953-6.607h1.22v2.5h.834c.357 0 .684.03 1.012.119.297.09.565.208.803.357.238.149.417.357.536.595.119.238.179.536.179.893s-.06.655-.209.923a1.625 1.625 0 01-.536.655 2.517 2.517 0 01-.803.386c-.328.09-.655.15-1.012.15h-2.024V1.934zm1.22 3.571V7.5h.863c.447 0 .774-.089.953-.297.208-.179.297-.447.297-.744 0-.298-.089-.536-.297-.715-.209-.178-.506-.268-.953-.268h-.863v.03zm4.524-3.571h1.22v2.649h2.976v-2.65h1.221v6.578h-1.221V5.595h-2.976v2.917h-1.22V1.935zm8.185 0v2.5h.714c.357 0 .685.03 1.012.119.298.089.565.208.804.357.238.178.416.387.535.625.119.238.209.565.209.893 0 .357-.06.655-.209.893a1.631 1.631 0 01-.535.655 2.522 2.522 0 01-.804.386c-.327.09-.655.12-1.012.12h-1.905V1.904h1.191v.03zm0 5.565h.774c.446 0 .773-.089.952-.268.208-.178.298-.416.298-.744 0-.297-.09-.535-.298-.714-.208-.179-.506-.268-.952-.268h-.774V7.5zm5-5.565v6.577h-1.22V1.935h1.22zm5.863 0h1.459v6.577h-1.221V3.661h-.029l-3.125 4.851h-1.459V1.935h1.22v4.821h.03l3.125-4.821zM167.217 0c.09.208.239.387.417.506.179.119.417.208.655.208.238 0 .446-.06.655-.208.208-.12.327-.298.416-.506l.685.357c-.06.149-.149.268-.238.417-.119.119-.238.238-.387.327a2.56 2.56 0 01-.506.238c-.179.06-.387.09-.595.09-.209 0-.417-.03-.596-.09-.178-.06-.357-.119-.506-.238a1.413 1.413 0 01-.386-.327c-.12-.12-.179-.268-.239-.417l.625-.357zm12.293 2.054c.476.06.892.178 1.279.357.387.178.744.387 1.012.684.268.298.506.596.655.953.149.357.238.774.238 1.22 0 .447-.089.833-.238 1.22-.149.358-.387.685-.655.983a4.023 4.023 0 01-1.012.684 3.688 3.688 0 01-1.279.328v.684h-1.161v-.684c-.476-.06-.893-.15-1.28-.328-.387-.178-.744-.387-1.012-.684-.298-.268-.506-.596-.684-.983a3.181 3.181 0 01-.239-1.22c0-.446.09-.833.239-1.22.148-.387.386-.685.684-.953a4.041 4.041 0 011.012-.684 3.688 3.688 0 011.28-.328v-.625h1.161v.596zm-3.096 3.184a2.061 2.061 0 00.476 1.37c.149.178.358.327.596.446s.506.208.833.238V3.155c-.298.06-.595.149-.833.268a1.853 1.853 0 00-.596.446c-.148.179-.297.387-.357.625-.059.238-.119.476-.119.744zm5 0c0-.535-.178-.982-.506-1.369-.327-.387-.803-.625-1.428-.714v4.137c.297-.03.565-.12.803-.238.239-.12.447-.268.596-.447.148-.178.297-.386.357-.625.059-.238.178-.476.178-.744zm9.197-.029c0 .506-.089.982-.268 1.428-.178.417-.416.804-.744 1.101a3.65 3.65 0 01-1.131.715 3.548 3.548 0 01-1.398.268 3.55 3.55 0 01-1.399-.268 4.038 4.038 0 01-1.131-.715c-.328-.297-.566-.684-.744-1.1-.179-.417-.268-.894-.268-1.43a3.41 3.41 0 011.012-2.5 3.65 3.65 0 011.131-.714c.416-.178.893-.238 1.399-.238.505 0 .982.09 1.398.238.417.179.804.417 1.131.714.328.298.566.655.744 1.102.179.416.268.893.268 1.399zm-1.309 0c0-.328-.06-.625-.149-.923-.089-.298-.268-.536-.447-.744a1.819 1.819 0 00-.714-.506 2.421 2.421 0 00-.922-.179c-.328 0-.625.06-.923.179a1.953 1.953 0 00-.685.506 2.613 2.613 0 00-.446.744c-.119.298-.149.595-.149.923 0 .327.06.654.149.922s.268.536.446.744c.179.209.417.387.685.506.268.12.565.179.923.179.327 0 .625-.06.922-.179.268-.119.506-.297.714-.506.209-.208.358-.476.447-.744.089-.268.149-.565.149-.922zm2.5-3.274h1.22v2.649h2.976v-2.65h1.221v6.578h-1.221V5.595h-2.976v2.917h-1.22V1.935zm7.202 6.607v1.28h-1.041V7.47h1.011l2.084-5.536h1.19l2.084 5.536h1.041v2.35h-1.041V8.543h-5.328zm1.22-1.071h2.798l-1.399-4.167-1.399 4.167z" fill="#C60205"/><path d="M63.077 54.794V32.799c0-2.262.535-4.435 1.607-6.459 1.071-2.024 2.59-3.66 4.613-4.91 1.994-1.25 4.345-1.876 6.994-1.876 1.578 0 3.155.268 4.733.774a12.927 12.927 0 014.315 2.411c1.31 1.071 2.352 2.5 3.155 4.226.774 1.756 1.19 3.78 1.19 6.131v21.698H78.852V44.168h-3.244v-8.81h3.244v-3.244c0-.833-.238-1.488-.714-1.934-.477-.447-1.072-.685-1.816-.685a2.29 2.29 0 00-1.667.685c-.446.476-.684 1.101-.684 1.934v22.68H63.077zm28.87 0l6.37-29.02c.505-2.202 1.368-3.75 2.559-4.642 1.19-.953 3.036-1.429 5.536-1.488 1.934 0 3.542.357 4.792 1.071 1.16.685 1.994 1.518 2.47 2.53a14.06 14.06 0 011.042 3.214l6.19 28.335h-11.012l-3.453-21.46-3.363 21.46H91.947zm33.126-34.644h10.834v21.459c0 1.488.179 2.47.536 2.916.357.507.952.745 1.845.745.685 0 1.25-.209 1.667-.655.357-.447.536-1.012.536-1.667 0-.714-.268-1.369-.834-1.934-.565-.536-1.399-.774-2.53-.774v-9.554a3.7 3.7 0 00.804-.09c2.321.06 4.226.387 5.744.983 1.578.625 2.887 1.517 3.959 2.678 1.012 1.072 1.756 2.352 2.232 3.81.446 1.34.684 2.857.684 4.554 0 .654-.029 1.1-.059 1.28-.149 2.291-.833 4.315-2.083 6.13-1.28 1.727-2.888 3.066-4.852 3.96-1.994.892-4.196 1.339-6.667 1.339-2.619-.15-4.821-.834-6.637-2.084a11.111 11.111 0 01-3.899-4.91c-.863-2.025-1.28-4.227-1.28-6.668V20.15zm33.751 34.644V30.09h-5.684v-9.822h22.203v9.822h-5.774v24.703h-10.745zm20.001 0V32.799c0-2.262.536-4.435 1.607-6.459 1.072-2.024 2.59-3.66 4.614-4.91 1.994-1.25 4.345-1.876 6.994-1.876 1.577 0 3.155.268 4.732.774a12.929 12.929 0 014.316 2.411c1.31 1.071 2.351 2.5 3.155 4.226.774 1.756 1.19 3.78 1.19 6.131v21.698H194.6V44.168h-3.245v-8.81h3.245v-3.244c0-.833-.238-1.488-.715-1.934-.476-.447-1.071-.685-1.815-.685a2.29 2.29 0 00-1.667.685c-.446.476-.685 1.101-.685 1.934v22.68h-10.893z" fill="#790232"/><path d="M50.435 35.277a2.993 2.993 0 100-5.985 2.993 2.993 0 000 5.985z" fill="#7E0100"/><path d="M38.05 31.957a2.403 2.403 0 100-4.806 2.403 2.403 0 000 4.806z" fill="#C60205"/><path d="M27.346 34.666a2.228 2.228 0 100-4.457 2.228 2.228 0 000 4.457z" fill="#FFAF00"/><path d="M31.715 54.914s9.852.634 15.247-3.189c5.22-3.626 7.995-8.89 4.412-15.683-.174 2.206-.174 2.534-.415 3.648-.284 1.354-.568 1.79-1.048.153-.48-1.595-5.286-13.238-10.288-15.247 2.927 4.827 5.92 11.468 5.373 15.18-.677 7.82-8.715 12.845-13.28 15.138z" fill="#7E0100"/><path d="M30.973 54.128s7.055-3.8 10.135-7.798c2.6-3.451 4.587-10.288-.917-13.346.72 2.184.852 2.402.852 2.861 0 .459-.372.852-1.093.131-.72-.72-6.269-7.776-12.603-8.606 6.75 4.609 9.087 9.698 9.196 12.735.175 4.303-.983 8.671-5.57 14.023z" fill="#C60205"/><path d="M30.252 53.102s3.08-4.085 4.434-7.624c1.507-3.888.633-10.2-5.09-11.162 1.158 1.201 1.311 1.53 1.42 1.747.219.416.24 1.267-1.026.656-1.267-.612-5.046-2.97-12.145-1.464 3.014.503 8.934 2.185 11.009 5.155 2.556 3.605 2.25 6.335 1.398 12.692z" fill="#FFAF00"/><path d="M11.947 40.825c0-16.382 13.28-29.641 29.642-29.641a29.454 29.454 0 0116.448 4.98A28.937 28.937 0 0039.6 9.567c-16.055 0-29.074 13.02-29.074 29.074 0 6.029 1.835 11.62 4.959 16.252a29.596 29.596 0 01-3.539-14.068z" fill="#FFAF00"/><path d="M7.141 39.406c0-18.043 14.636-32.678 32.678-32.678a32.46 32.46 0 0118.13 5.504 31.9 31.9 0 00-20.336-7.274c-17.715 0-32.066 14.352-32.066 32.067 0 6.64 2.01 12.8 5.483 17.933a33.086 33.086 0 01-3.89-15.552z" fill="#C60205"/><path d="M2.27 37.877c0-19.834 16.077-35.911 35.911-35.911a35.82 35.82 0 0119.921 6.029C52.03 3.015 44.254 0 35.778 0 16.338 0 .567 15.771.567 35.212a35.138 35.138 0 006.007 19.68C3.82 49.848 2.27 44.037 2.27 37.878z" fill="#7E0100"/></svg>