<svg width="512" height="512" fill="none" xmlns="http://www.w3.org/2000/svg"><g clip-path="url(#clip0)"><path d="M123.577 241.951L360.393 5.79c7.759-7.733 20.321-7.72 28.067.04 7.74 7.759 7.72 20.328-.04 28.067L165.7 256.002l222.728 222.104c7.759 7.74 7.779 20.301.04 28.061a19.8 19.8 0 01-14.057 5.835 19.79 19.79 0 01-14.017-5.795L123.577 270.052a19.82 19.82 0 01-5.834-14.05 19.86 19.86 0 015.834-14.051z" fill="#fff"/></g><defs><clipPath id="clip0"><path fill="#fff" transform="matrix(-1 0 0 1 512.002 0)" d="M0 0h512.002v512.002H0z"/></clipPath></defs></svg>