<svg width="256" height="273" viewBox="0 0 256 273" fill="none" xmlns="http://www.w3.org/2000/svg">
<path d="M131.167 101.371C121.106 70.218 147.009 25.1869 177.837 21.3113C184.652 20.4623 191.895 21.2374 197.639 25.0392C225.434 43.4208 194.464 120.269 186.65 143.191C175.482 175.967 162.28 207.969 148.294 239.564C146.26 244.178 144.333 248.903 141.586 253C114.005 231.001 88.8151 199.738 66.7648 171.833C46.677 146.402 -10.3041 78.486 19.4173 44.5282C23.6633 39.6928 29.5149 36.6661 35.5448 34.636C51.1727 29.3947 68.6915 30.4651 83.6057 37.5889C107.012 48.736 123.246 76.8619 131.167 101.371Z" fill="#E73227"/>
</svg>
