<svg width="206" height="56" viewBox="0 0 206 56" fill="none" xmlns="http://www.w3.org/2000/svg">
<path d="M63.017 8.54199V1.96436H67.3625V3.00606H64.2671V4.55374H65.3386C65.6957 4.55374 66.0231 4.58351 66.3207 4.6728C66.6184 4.76208 66.8862 4.88114 67.0946 5.02995C67.3029 5.20853 67.4815 5.3871 67.6006 5.65497C67.7196 5.89308 67.7791 6.19071 67.7791 6.54786C67.7791 6.90502 67.7196 7.20265 67.5708 7.44076C67.4517 7.70862 67.2732 7.91697 67.0351 8.06578C66.797 8.24436 66.5589 8.36342 66.2612 8.42294C65.9636 8.51223 65.6362 8.54199 65.3088 8.54199H63.017ZM65.2195 7.47052C65.6064 7.47052 65.9338 7.38124 66.1719 7.23242C66.41 7.0836 66.5589 6.84549 66.5589 6.5181C66.5589 6.33952 66.5291 6.22047 66.4696 6.10142C66.41 5.98237 66.3207 5.89308 66.2017 5.80379C66.0826 5.7145 65.9338 5.68473 65.785 5.62521C65.6362 5.56568 65.4576 5.56569 65.279 5.56569H64.2671V7.47052H65.2195Z" fill="#C60205"/>
<path d="M69.5649 8.54199H68.2554L70.934 1.96436H72.1841L74.8925 8.54199H73.5532L71.5888 3.60132L69.5649 8.54199Z" fill="#C60205"/>
<path d="M76.053 8.54199H74.7136L77.5113 1.96436H78.7019L81.4698 8.54199H80.1007L79.5055 7.0836H76.6184L76.053 8.54199ZM77.0054 6.0419H79.1781L78.1066 3.27393L77.0054 6.0419Z" fill="#C60205"/>
<path d="M83.4048 8.54199H82.1845V1.96436H86.1728V3.03583H83.4048V8.54199V8.54199Z" fill="#C60205"/>
<path d="M93.911 5.20855C93.911 5.71453 93.8217 6.19074 93.6431 6.63719C93.4645 7.08363 93.2264 7.44078 92.899 7.73841C92.5716 8.03604 92.2145 8.27415 91.768 8.45272C91.3513 8.6313 90.8751 8.7206 90.3692 8.7206C89.8632 8.7206 89.387 8.6313 88.9703 8.45272C88.5536 8.27415 88.1667 8.03604 87.8393 7.73841C87.5119 7.44078 87.2738 7.05387 87.0952 6.63719C86.9166 6.2205 86.8274 5.74429 86.8274 5.20855C86.8274 4.70258 86.9166 4.22637 87.0952 3.80969C87.2738 3.39301 87.5119 3.03585 87.8393 2.70846C88.1667 2.41083 88.5238 2.17273 88.9703 1.99415C89.387 1.81557 89.8632 1.75604 90.3692 1.75604C90.8751 1.75604 91.3513 1.84533 91.768 1.99415C92.1847 2.17273 92.5716 2.41083 92.899 2.70846C93.2264 3.00609 93.4645 3.36325 93.6431 3.80969C93.8217 4.22637 93.911 4.70258 93.911 5.20855ZM92.6014 5.20855C92.6014 4.88116 92.5419 4.58353 92.4526 4.2859C92.3335 3.98827 92.1847 3.75017 92.0061 3.54183C91.8276 3.33348 91.5894 3.15491 91.2918 3.03585C91.0239 2.9168 90.6966 2.85727 90.3692 2.85727C90.0418 2.85727 89.7441 2.9168 89.4465 3.03585C89.1786 3.15491 88.9405 3.33348 88.7619 3.54183C88.5834 3.75017 88.4346 3.98827 88.3155 4.2859C88.1965 4.58353 88.1667 4.88116 88.1667 5.20855C88.1667 5.53595 88.2262 5.86334 88.3155 6.13121C88.4048 6.39908 88.5834 6.66695 88.7619 6.87529C88.9405 7.08363 89.1786 7.26221 89.4465 7.38126C89.7144 7.50031 90.012 7.55983 90.3692 7.55983C90.7263 7.55983 90.9942 7.50031 91.2918 7.38126C91.5597 7.26221 91.7978 7.08363 92.0061 6.87529C92.2145 6.66695 92.3633 6.39908 92.4526 6.13121C92.5419 5.86334 92.6014 5.56571 92.6014 5.20855Z" fill="#C60205"/>
<path d="M97.6316 8.54199H96.4113V3.00606H94.4171V1.96436H99.6554V3.00606H97.6613V8.54199H97.6316Z" fill="#C60205"/>
<path d="M100.459 1.93463H102.811C103.078 1.93463 103.317 1.9644 103.584 2.02392C103.852 2.08345 104.09 2.17274 104.299 2.29179C104.507 2.41084 104.686 2.58942 104.805 2.79776C104.924 3.0061 105.013 3.30374 105.013 3.63113C105.013 3.98829 104.924 4.28592 104.715 4.52402C104.507 4.76213 104.239 4.9407 103.912 5.02999V5.05975C104.12 5.08952 104.299 5.14904 104.448 5.23833C104.626 5.32762 104.775 5.41691 104.894 5.56573C105.013 5.68478 105.132 5.86336 105.192 6.04194C105.251 6.22052 105.311 6.42886 105.311 6.6372C105.311 6.96459 105.251 7.26222 105.102 7.47056C104.983 7.70867 104.805 7.88724 104.567 8.06582C104.329 8.21464 104.09 8.33369 103.763 8.39322C103.465 8.45274 103.138 8.51227 102.811 8.51227H100.459V1.93463ZM101.65 4.67284H102.692C102.84 4.67284 102.989 4.64307 103.138 4.61331C103.287 4.58354 103.406 4.52402 103.495 4.46449C103.584 4.40496 103.674 4.31568 103.733 4.19663C103.793 4.07757 103.823 3.95852 103.823 3.77994C103.823 3.48231 103.703 3.27397 103.495 3.12515C103.287 2.97634 102.959 2.91681 102.602 2.91681H101.65V4.67284ZM101.65 7.53009H102.692C102.87 7.53009 103.049 7.50032 103.198 7.47056C103.376 7.4408 103.525 7.38127 103.644 7.32175C103.763 7.23246 103.882 7.14317 103.971 7.02412C104.061 6.90506 104.09 6.72648 104.09 6.5479C104.09 6.22051 103.971 5.95264 103.733 5.80383C103.495 5.65501 103.168 5.56573 102.751 5.56573H101.68V7.53009H101.65Z" fill="#C60205"/>
<path d="M113.257 5.20855C113.257 5.71453 113.168 6.19074 112.989 6.63719C112.811 7.05387 112.573 7.44078 112.245 7.73841C111.918 8.03604 111.561 8.27415 111.114 8.45272C110.697 8.6313 110.221 8.7206 109.715 8.7206C109.209 8.7206 108.733 8.6313 108.316 8.45272C107.9 8.27415 107.513 8.03604 107.185 7.73841C106.858 7.44078 106.62 7.05387 106.441 6.63719C106.263 6.2205 106.174 5.74429 106.174 5.20855C106.174 4.70258 106.263 4.22637 106.441 3.80969C106.62 3.39301 106.858 3.03585 107.185 2.70846C107.513 2.41083 107.87 2.17273 108.316 1.99415C108.733 1.81557 109.209 1.75604 109.715 1.75604C110.221 1.75604 110.697 1.84533 111.114 1.99415C111.531 2.17273 111.918 2.41083 112.245 2.70846C112.573 3.00609 112.811 3.36325 112.989 3.80969C113.168 4.22637 113.257 4.70258 113.257 5.20855ZM111.948 5.20855C111.948 4.88116 111.888 4.58353 111.799 4.2859C111.709 3.98827 111.531 3.75017 111.352 3.54183C111.174 3.33348 110.936 3.15491 110.638 3.03585C110.34 2.9168 110.043 2.85727 109.715 2.85727C109.388 2.85727 109.09 2.9168 108.793 3.03585C108.525 3.15491 108.287 3.33348 108.108 3.54183C107.93 3.75017 107.781 3.98827 107.662 4.2859C107.543 4.58353 107.513 4.88116 107.513 5.20855C107.513 5.53595 107.572 5.86334 107.662 6.13121C107.751 6.39908 107.93 6.66695 108.108 6.87529C108.287 7.08363 108.525 7.26221 108.793 7.38126C109.061 7.50031 109.358 7.55983 109.715 7.55983C110.043 7.55983 110.34 7.50031 110.638 7.38126C110.906 7.26221 111.144 7.08363 111.352 6.87529C111.561 6.66695 111.709 6.39908 111.799 6.13121C111.888 5.86334 111.948 5.56571 111.948 5.20855Z" fill="#C60205"/>
<path d="M114.448 1.93463H116.65C117.007 1.93463 117.335 1.9644 117.632 2.05369C117.93 2.11321 118.198 2.23226 118.406 2.38108C118.614 2.52989 118.793 2.73823 118.912 2.97634C119.031 3.21444 119.091 3.51207 119.091 3.86923C119.091 4.22639 119.031 4.52402 118.912 4.76212C118.793 5.00023 118.614 5.20857 118.376 5.35738C118.138 5.5062 117.9 5.62525 117.602 5.71454C117.305 5.77407 116.977 5.83359 116.65 5.83359H115.698V8.54203H114.477V1.93463H114.448ZM115.698 4.82165H116.561C116.948 4.82165 117.275 4.76212 117.513 4.61331C117.751 4.46449 117.9 4.22639 117.9 3.86923C117.9 3.69065 117.87 3.54184 117.811 3.42278C117.751 3.30373 117.662 3.21444 117.543 3.12515C117.424 3.06563 117.305 3.0061 117.126 2.97634C116.977 2.94658 116.799 2.91681 116.591 2.91681H115.727V4.82165H115.698Z" fill="#C60205"/>
<path d="M121.442 6.81577L124.627 1.93463H126.056V8.51227H124.835V3.63113H124.805L121.621 8.51227H120.192V1.93463H121.412L121.442 6.81577Z" fill="#C60205"/>
<path d="M130.073 8.54199H128.853V3.00606H126.859V1.96436H132.097V3.00606H130.103V8.54199H130.073Z" fill="#C60205"/>
<path d="M134.091 7.47056H137.335V8.51227H132.9V1.93463H137.186V2.97634H134.091V4.61331H137.008V5.62525H134.091V7.47056Z" fill="#C60205"/>
<path d="M139.002 8.54199H137.692L140.371 1.96436H141.621L144.33 8.54199H142.99L141.026 3.60132L139.002 8.54199Z" fill="#C60205"/>
<path d="M144.955 1.93463H146.175V4.43473H147.009C147.366 4.43473 147.693 4.46449 148.021 4.55378C148.318 4.64307 148.586 4.76212 148.824 4.91094C149.062 5.05975 149.241 5.26809 149.36 5.5062C149.479 5.7443 149.539 6.04193 149.539 6.39909C149.539 6.75625 149.479 7.05388 149.33 7.32175C149.211 7.58961 149.033 7.79796 148.794 7.97654C148.556 8.15512 148.288 8.27416 147.991 8.36345C147.663 8.45274 147.336 8.51227 146.979 8.51227H144.955V1.93463ZM146.175 5.5062V7.50033H147.038C147.485 7.50033 147.812 7.41104 147.991 7.2027C148.199 7.02412 148.288 6.75625 148.288 6.45862C148.288 6.16099 148.199 5.92289 147.991 5.74431C147.782 5.56573 147.485 5.47643 147.038 5.47643H146.175V5.5062Z" fill="#C60205"/>
<path d="M150.699 1.93463H151.919V4.58355H154.895V1.93463H156.116V8.51227H154.895V5.59549H151.919V8.51227H150.699V1.93463Z" fill="#C60205"/>
<path d="M158.884 1.93461V4.43471H159.598C159.955 4.43471 160.283 4.46447 160.61 4.55376C160.908 4.64305 161.175 4.7621 161.414 4.91091C161.652 5.08949 161.83 5.29783 161.949 5.53594C162.068 5.77404 162.158 6.10144 162.158 6.42883C162.158 6.78599 162.098 7.08362 161.949 7.32172C161.83 7.58959 161.652 7.79793 161.414 7.97651C161.175 8.15509 160.908 8.27414 160.61 8.36343C160.283 8.45272 159.955 8.48248 159.598 8.48248H157.693V1.90485H158.884V1.93461ZM158.884 7.5003H159.658C160.104 7.5003 160.431 7.41101 160.61 7.23244C160.818 7.05386 160.908 6.81575 160.908 6.48836C160.908 6.19073 160.818 5.95262 160.61 5.77404C160.402 5.59546 160.104 5.50617 159.658 5.50617H158.884V7.5003ZM163.884 1.93461V8.51224H162.664V1.93461H163.884Z" fill="#C60205"/>
<path d="M169.747 1.9346H171.206V8.51223H169.985V3.66086H169.956L166.831 8.51223H165.372V1.9346H166.592V6.75622H166.622L169.747 1.9346ZM167.217 0C167.307 0.208341 167.456 0.386923 167.634 0.505976C167.813 0.625028 168.051 0.714316 168.289 0.714316C168.527 0.714316 168.735 0.654791 168.944 0.505976C169.152 0.386923 169.271 0.208341 169.36 0L170.045 0.35716C169.985 0.505976 169.896 0.625026 169.807 0.773841C169.688 0.892893 169.569 1.01195 169.42 1.10124C169.271 1.19053 169.093 1.27981 168.914 1.33934C168.735 1.39886 168.527 1.42863 168.319 1.42863C168.11 1.42863 167.902 1.39886 167.723 1.33934C167.545 1.27981 167.366 1.22029 167.217 1.10124C167.069 1.01195 166.92 0.892893 166.831 0.773841C166.711 0.654789 166.652 0.505976 166.592 0.35716L167.217 0Z" fill="#C60205"/>
<path d="M179.51 2.0537C179.986 2.11322 180.402 2.23227 180.789 2.41085C181.176 2.58943 181.533 2.79777 181.801 3.0954C182.069 3.39303 182.307 3.69066 182.456 4.04782C182.605 4.40498 182.694 4.82166 182.694 5.26811C182.694 5.71455 182.605 6.10147 182.456 6.48839C182.307 6.84555 182.069 7.17294 181.801 7.47057C181.504 7.73844 181.176 7.97654 180.789 8.15512C180.402 8.3337 179.956 8.45275 179.51 8.48251V9.16707H178.349V8.48251C177.873 8.42299 177.456 8.3337 177.069 8.15512C176.682 7.97654 176.325 7.7682 176.057 7.47057C175.759 7.2027 175.551 6.87531 175.373 6.48839C175.224 6.13124 175.134 5.71455 175.134 5.26811C175.134 4.82166 175.224 4.43474 175.373 4.04782C175.521 3.6609 175.759 3.36327 176.057 3.0954C176.355 2.82754 176.682 2.58943 177.069 2.41085C177.456 2.23227 177.902 2.11322 178.349 2.08346V1.45844H179.51V2.0537ZM176.414 5.23834C176.414 5.50621 176.444 5.74431 176.533 5.98242C176.623 6.22052 176.742 6.42887 176.89 6.60744C177.039 6.78602 177.248 6.93484 177.486 7.05389C177.724 7.17294 177.992 7.26223 178.319 7.29199V3.15493C178.021 3.21445 177.724 3.30374 177.486 3.42279C177.248 3.54185 177.039 3.69066 176.89 3.86924C176.742 4.04782 176.593 4.25616 176.533 4.49427C176.474 4.73237 176.414 4.97047 176.414 5.23834ZM181.414 5.23834C181.414 4.70261 181.236 4.25616 180.908 3.86924C180.581 3.48232 180.105 3.24422 179.48 3.15493V7.29199C179.777 7.26223 180.045 7.17294 180.283 7.05389C180.522 6.93484 180.73 6.78602 180.879 6.60744C181.027 6.42887 181.176 6.22052 181.236 5.98242C181.295 5.74431 181.414 5.50621 181.414 5.23834Z" fill="#C60205"/>
<path d="M190.611 5.20855C190.611 5.71453 190.522 6.19074 190.343 6.63719C190.165 7.05387 189.927 7.44078 189.599 7.73841C189.272 8.03604 188.915 8.27415 188.468 8.45272C188.052 8.6313 187.575 8.7206 187.07 8.7206C186.564 8.7206 186.087 8.6313 185.671 8.45272C185.254 8.27415 184.867 8.03604 184.54 7.73841C184.212 7.44078 183.974 7.05387 183.796 6.63719C183.617 6.2205 183.528 5.74429 183.528 5.20855C183.528 4.70258 183.617 4.22637 183.796 3.80969C183.974 3.39301 184.212 3.03585 184.54 2.70846C184.867 2.41083 185.224 2.17273 185.671 1.99415C186.087 1.81557 186.564 1.75604 187.07 1.75604C187.575 1.75604 188.052 1.84533 188.468 1.99415C188.885 2.17273 189.272 2.41083 189.599 2.70846C189.927 3.00609 190.165 3.36325 190.343 3.80969C190.522 4.22637 190.611 4.70258 190.611 5.20855ZM189.302 5.20855C189.302 4.88116 189.242 4.58353 189.153 4.2859C189.064 3.98827 188.885 3.75017 188.706 3.54183C188.528 3.33348 188.29 3.15491 187.992 3.03585C187.695 2.9168 187.397 2.85727 187.07 2.85727C186.742 2.85727 186.445 2.9168 186.147 3.03585C185.879 3.15491 185.641 3.33348 185.462 3.54183C185.284 3.75017 185.135 3.98827 185.016 4.2859C184.897 4.58353 184.867 4.88116 184.867 5.20855C184.867 5.53595 184.927 5.86334 185.016 6.13121C185.105 6.39908 185.284 6.66695 185.462 6.87529C185.641 7.08363 185.879 7.26221 186.147 7.38126C186.415 7.50031 186.712 7.55983 187.07 7.55983C187.397 7.55983 187.695 7.50031 187.992 7.38126C188.26 7.26221 188.498 7.08363 188.706 6.87529C188.915 6.66695 189.064 6.39908 189.153 6.13121C189.242 5.86334 189.302 5.56571 189.302 5.20855Z" fill="#C60205"/>
<path d="M191.802 1.93463H193.022V4.58355H195.998V1.93463H197.219V8.51227H195.998V5.59549H193.022V8.51227H191.802V1.93463Z" fill="#C60205"/>
<path d="M199.004 8.54203V9.82184H197.963V7.47056H198.974L201.058 1.93463H202.248L204.332 7.47056H205.373V9.82184H204.332V8.54203H199.004ZM200.224 7.47056H203.022L201.623 3.30373L200.224 7.47056Z" fill="#C60205"/>
<path d="M63.0765 54.7938V32.7989C63.0765 30.5369 63.6123 28.3642 64.6837 26.3403C65.7552 24.3164 67.2731 22.6794 69.297 21.4294C71.2911 20.1793 73.6424 19.5543 76.2913 19.5543C77.8688 19.5543 79.4462 19.8222 81.0236 20.3282C82.5713 20.8341 84.0297 21.6377 85.3393 22.739C86.6489 23.8104 87.6906 25.2391 88.4942 26.9653C89.268 28.7213 89.6847 30.7452 89.6847 33.0965V54.7938H78.8509V44.1684H75.6068V35.3585H78.8509V32.1143C78.8509 31.281 78.6128 30.6262 78.1366 30.1797C77.6604 29.7333 77.0652 29.4952 76.3211 29.4952C75.6663 29.4952 75.1008 29.7333 74.6544 30.1797C74.2079 30.6559 73.9698 31.281 73.9698 32.1143V54.7938H63.0765V54.7938Z" fill="#790232"/>
<path d="M91.9469 54.7938L98.3162 25.7748C98.8222 23.5723 99.6853 22.0247 100.876 21.1318C102.066 20.1794 103.912 19.7031 106.412 19.6436C108.346 19.6436 109.954 20.0008 111.204 20.7151C112.364 21.3996 113.198 22.233 113.674 23.2449C114.12 24.1974 114.478 25.2688 114.716 26.4594L120.906 54.7938H109.894L106.441 33.3346L103.078 54.7938H91.9469Z" fill="#790232"/>
<path d="M125.073 20.1496H135.907V41.6087C135.907 43.0969 136.086 44.0791 136.443 44.5255C136.8 45.0315 137.395 45.2696 138.288 45.2696C138.973 45.2696 139.538 45.0612 139.955 44.6148C140.312 44.1683 140.491 43.6029 140.491 42.9481C140.491 42.2338 140.223 41.579 139.657 41.0135C139.092 40.4777 138.258 40.2396 137.127 40.2396V30.6857C137.395 30.6857 137.663 30.6559 137.931 30.5964C140.252 30.6559 142.157 30.9833 143.675 31.5786C145.253 32.2036 146.562 33.0965 147.634 34.2573C148.646 35.3287 149.39 36.6085 149.866 38.0669C150.312 39.4063 150.55 40.9242 150.55 42.6207C150.55 43.2755 150.521 43.7219 150.491 43.9005C150.342 46.1922 149.658 48.2161 148.408 50.0317C147.128 51.7579 145.52 53.0973 143.556 53.9902C141.562 54.883 139.36 55.3295 136.889 55.3295C134.27 55.1807 132.068 54.4961 130.252 53.2461C128.496 51.996 127.186 50.3591 126.353 48.3352C125.49 46.3113 125.073 44.1088 125.073 41.6682V20.1496Z" fill="#790232"/>
<path d="M158.824 54.7938V30.0905H153.14V20.2686H175.343V30.0905H169.569V54.7938H158.824Z" fill="#790232"/>
<path d="M178.825 54.7938V32.7989C178.825 30.5369 179.361 28.3642 180.432 26.3403C181.504 24.3164 183.022 22.6794 185.046 21.4294C187.04 20.1793 189.391 19.5543 192.04 19.5543C193.617 19.5543 195.195 19.8222 196.772 20.3282C198.32 20.8341 199.778 21.6377 201.088 22.739C202.398 23.8104 203.439 25.2391 204.243 26.9653C205.017 28.7213 205.433 30.7452 205.433 33.0965V54.7938H194.6V44.1684H191.355V35.3585H194.6V32.1143C194.6 31.281 194.362 30.6262 193.885 30.1797C193.409 29.7333 192.814 29.4952 192.07 29.4952C191.415 29.4952 190.849 29.7333 190.403 30.1797C189.957 30.6559 189.718 31.281 189.718 32.1143V54.7938H178.825V54.7938Z" fill="#790232"/>
<path d="M50.435 35.2772C52.0877 35.2772 53.4275 33.9374 53.4275 32.2846C53.4275 30.6319 52.0877 29.2921 50.435 29.2921C48.7822 29.2921 47.4424 30.6319 47.4424 32.2846C47.4424 33.9374 48.7822 35.2772 50.435 35.2772Z" fill="#7E0100"/>
<path d="M38.0497 31.957C39.3767 31.957 40.4525 30.8812 40.4525 29.5542C40.4525 28.2272 39.3767 27.1514 38.0497 27.1514C36.7227 27.1514 35.6469 28.2272 35.6469 29.5542C35.6469 30.8812 36.7227 31.957 38.0497 31.957Z" fill="#C60205"/>
<path d="M27.3465 34.6656C28.577 34.6656 29.5746 33.668 29.5746 32.4375C29.5746 31.207 28.577 30.2095 27.3465 30.2095C26.116 30.2095 25.1185 31.207 25.1185 32.4375C25.1185 33.668 26.116 34.6656 27.3465 34.6656Z" fill="#FFAF00"/>
<path d="M31.7152 54.9145C31.7152 54.9145 41.5666 55.5479 46.9619 51.7253C52.1825 48.0993 54.9567 42.835 51.3743 36.0417C51.1996 38.2479 51.1996 38.5756 50.9593 39.6896C50.6753 41.0439 50.3914 41.4807 49.9108 39.8425C49.4303 38.2479 44.6247 26.6053 39.6225 24.5957C42.5496 29.4231 45.5421 36.0636 44.996 39.7769C44.3189 47.5969 36.2805 52.6209 31.7152 54.9145Z" fill="#7E0100"/>
<path d="M30.9728 54.1281C30.9728 54.1281 38.0282 50.3273 41.1081 46.33C43.7075 42.8787 45.6953 36.0417 40.1907 32.9836C40.9115 35.168 41.0426 35.3864 41.0426 35.8451C41.0426 36.3038 40.6713 36.697 39.9504 35.9762C39.2296 35.2553 33.6814 28.1999 27.3467 27.3698C34.0964 31.9788 36.4336 37.0683 36.5428 40.1046C36.7176 44.4078 35.5599 48.7764 30.9728 54.1281Z" fill="#C60205"/>
<path d="M30.2518 53.1015C30.2518 53.1015 33.3318 49.0167 34.6861 45.4781C36.1932 41.5899 35.3195 35.2772 29.5965 34.3161C30.7542 35.5175 30.9071 35.8451 31.0163 36.0635C31.2348 36.4786 31.2566 37.3305 29.9897 36.7189C28.7228 36.1072 24.9439 33.7481 17.8447 35.2553C20.8591 35.7577 26.7787 37.4397 28.8538 40.4104C31.4095 44.0146 31.1037 46.745 30.2518 53.1015Z" fill="#FFAF00"/>
<path d="M11.947 40.8254C11.947 24.4428 25.2278 11.1839 41.5886 11.1839C47.6829 11.1839 53.3403 13.0187 58.0367 16.1642C53.0127 12.0358 46.5907 9.56744 39.6008 9.56744C23.5459 9.56744 10.5271 22.5861 10.5271 38.6411C10.5271 44.6699 12.362 50.2618 15.4856 54.8926C13.2357 50.7205 11.947 45.915 11.947 40.8254Z" fill="#FFAF00"/>
<path d="M7.14147 39.4056C7.14147 21.3629 21.7766 6.72779 39.8193 6.72779C46.5252 6.72779 52.7725 8.75923 57.9494 12.2323C52.423 7.6889 45.3457 4.95847 37.6131 4.95847C19.8981 4.95847 5.5469 19.3096 5.5469 37.0247C5.5469 43.6651 7.5565 49.825 11.0296 54.9582C8.5613 50.3055 7.14147 45.0194 7.14147 39.4056Z" fill="#C60205"/>
<path d="M2.27044 37.8766C2.27044 18.0427 18.3472 1.96591 38.1811 1.96591C45.5424 1.96591 52.4012 4.19395 58.1023 7.99471C52.0299 3.0144 44.2536 0 35.7783 0C16.3376 0 0.56665 15.771 0.56665 35.2117C0.56665 42.5074 2.79468 49.2789 6.5736 54.8926C3.82133 49.8468 2.27044 44.0364 2.27044 37.8766Z" fill="#7E0100"/>
</svg>
