<svg width="100" height="100" fill="none" xmlns="http://www.w3.org/2000/svg"><path d="M42.637 42.305c-7.012 0-12.696 5.703-12.696 12.695 0 8.73 17.579 24.629 17.754 24.785 1.016.918 3.125 1.856 5.352.078.176-.136 17.851-15.156 17.851-24.863 0-7.012-5.703-12.695-12.695-12.695-2.871 0-5.586.957-7.773 2.636a12.844 12.844 0 00-7.793-2.636zM53.965 52.89a4.689 4.689 0 018.887 2.09c0 .312.156 4.238-12.403 16.328C38.32 59.14 37.91 55 37.91 54.98a4.689 4.689 0 018.887-2.09 4.024 4.024 0 003.574 2.207c1.543 0 2.93-.86 3.594-2.207z" fill="#DCDCDC"/><path d="M87.46 27.793L57.97 3.086a3.973 3.973 0 00-2.559-.938H15.117a3.976 3.976 0 00-3.984 3.985v87.734a3.976 3.976 0 003.984 3.985h69.785a3.976 3.976 0 003.985-3.985V30.84a3.974 3.974 0 00-1.426-3.047zM58.81 14.18l15.33 12.85H58.809V14.18zM80.9 89.883H19.101V10.117H50.8v20.918a4.01 4.01 0 004.004 4.004h26.093v54.844z" fill="#DCDCDC"/><path d="M44.883 24.59a3.976 3.976 0 00-3.985-3.985H29.61a3.976 3.976 0 00-3.984 3.985 3.976 3.976 0 003.984 3.984H40.9a3.976 3.976 0 003.984-3.984z" fill="#DCDCDC"/></svg>