<svg width="37" height="37" fill="none" xmlns="http://www.w3.org/2000/svg"><g clip-path="url(#clip0)"><path d="M18.413 36.013c9.945 0 18.007-8.062 18.007-18.006C36.42 8.062 28.358 0 18.413 0 8.47 0 .407 8.062.407 18.007c0 9.944 8.062 18.006 18.006 18.006z" fill="#0080FC"/><path d="M22.94 18.711h-3.213v11.772H14.86V18.71h-2.315v-4.137h2.315v-2.677c0-1.914.91-4.912 4.911-4.912L23.377 7v4.016H20.76c-.43 0-1.033.214-1.033 1.128v2.434h3.639l-.426 4.133z" fill="#fff"/></g><defs><clipPath id="clip0"><path fill="#fff" transform="translate(.407)" d="M0 0h36.013v36.013H0z"/></clipPath></defs></svg>