<svg width="39" height="39" fill="none" xmlns="http://www.w3.org/2000/svg"><g clip-path="url(#clip0)"><rect width="38.197" height="38.197" rx="19.099" fill="#fff"/><path d="M24.79 10.163H13.407a3.3 3.3 0 00-3.295 3.295v11.385a3.3 3.3 0 003.295 3.296h11.385a3.3 3.3 0 003.296-3.296V13.458a3.3 3.3 0 00-3.296-3.295zM19.1 25.068a5.924 5.924 0 01-5.918-5.918 5.924 5.924 0 015.918-5.917 5.924 5.924 0 015.917 5.917 5.925 5.925 0 01-5.917 5.918zm6.108-10.612a1.4 1.4 0 010-2.8c.772 0 1.4.628 1.4 1.4 0 .772-.628 1.4-1.4 1.4z" fill="#0080FC"/><path d="M19.099 15.733a3.421 3.421 0 00-3.418 3.417 3.422 3.422 0 003.418 3.417 3.42 3.42 0 003.416-3.417 3.42 3.42 0 00-3.416-3.417z" fill="#008CC8"/><path d="M19.099 0C8.55 0 0 8.551 0 19.099c0 10.547 8.551 19.098 19.099 19.098 10.547 0 19.098-8.55 19.098-19.098C38.197 8.55 29.647 0 19.1 0zm11.488 24.842c0 3.197-2.6 5.797-5.796 5.797H13.406a5.802 5.802 0 01-5.796-5.797V13.458c0-3.196 2.6-5.796 5.796-5.796h11.385c3.196 0 5.796 2.6 5.796 5.796v11.384z" fill="#0080FC"/></g><defs><clipPath id="clip0"><rect width="38.197" height="38.197" rx="19.099" fill="#fff"/></clipPath></defs></svg>