<svg width="37" height="37" fill="none" xmlns="http://www.w3.org/2000/svg"><g clip-path="url(#clip0)"><path d="M18.993 36.013C28.938 36.013 37 27.951 37 18.007 37 8.062 28.938 0 18.993 0 9.05 0 .987 8.062.987 18.007c0 9.944 8.062 18.006 18.006 18.006z" fill="#0080FC"/><path fill-rule="evenodd" clip-rule="evenodd" d="M18.313 25.904h1.413s.427-.047.645-.282c.2-.215.195-.62.195-.62s-.028-1.897.852-2.176c.868-.275 1.982 1.833 3.163 2.643.893.614 1.571.48 1.571.48l3.158-.045s1.652-.102.868-1.4c-.064-.106-.456-.96-2.347-2.717-1.98-1.837-1.715-1.54.67-4.719 1.452-1.936 2.033-3.118 1.852-3.624-.173-.482-1.242-.354-1.242-.354l-3.555.022s-.263-.036-.459.08c-.19.115-.314.382-.314.382s-.562 1.498-1.313 2.772c-1.583 2.689-2.216 2.83-2.475 2.663-.602-.389-.451-1.562-.451-2.396 0-2.605.395-3.692-.77-3.973-.386-.093-.67-.155-1.659-.165-1.268-.013-2.342.004-2.95.302-.404.198-.716.64-.526.665.235.031.767.143 1.049.527.364.496.351 1.61.351 1.61s.21 3.066-.489 3.447c-.479.261-1.136-.272-2.548-2.711-.723-1.25-1.269-2.63-1.269-2.63s-.105-.258-.293-.396c-.228-.168-.546-.22-.546-.22l-3.378.021s-.508.014-.694.235c-.165.196-.013.602-.013.602s2.645 6.188 5.64 9.306c2.746 2.86 5.864 2.671 5.864 2.671z" fill="#fff"/></g><defs><clipPath id="clip0"><path fill="#fff" transform="translate(.987)" d="M0 0h36.013v36.013H0z"/></clipPath></defs></svg>