<svg width="37" height="36" fill="none" xmlns="http://www.w3.org/2000/svg"><g clip-path="url(#clip0)"><rect x=".827" width="35.95" height="35.95" rx="17.975" fill="#fff"/><path d="M16.563 21.343l5.847-3.368-5.847-3.368v6.736z" fill="#008CC8"/><path d="M18.802 0C8.876 0 .827 8.05.827 17.975c0 9.926 8.05 17.975 17.975 17.975 9.926 0 17.975-8.049 17.975-17.975C36.777 8.05 28.727 0 18.802 0zm11.232 17.994s0 3.645-.463 5.403a2.815 2.815 0 01-1.98 1.98c-1.758.462-8.789.462-8.789.462s-7.013 0-8.79-.48a2.815 2.815 0 01-1.98-1.98c-.462-1.74-.462-5.404-.462-5.404s0-3.645.463-5.403a2.872 2.872 0 011.98-1.998c1.758-.463 8.789-.463 8.789-.463s7.031 0 8.79.481a2.815 2.815 0 011.98 1.98c.48 1.758.462 5.422.462 5.422z" fill="#0080FC"/></g><defs><clipPath id="clip0"><rect x=".827" width="35.95" height="35.95" rx="17.975" fill="#fff"/></clipPath></defs></svg>