<svg width="38" height="38" viewBox="0 0 38 38" fill="none" xmlns="http://www.w3.org/2000/svg">
<path d="M27.3125 28.4999H10.6875V6.33325H27.3125V28.4999ZM22.1667 33.2499H15.8333V31.6666H22.1667V33.2499ZM25.3333 1.58325H12.6667C11.4069 1.58325 10.1987 2.0837 9.30791 2.97449C8.41711 3.86529 7.91667 5.07347 7.91667 6.33325V31.6666C7.91667 32.9264 8.41711 34.1345 9.30791 35.0253C10.1987 35.9161 11.4069 36.4166 12.6667 36.4166H25.3333C26.5931 36.4166 27.8013 35.9161 28.6921 35.0253C29.5829 34.1345 30.0833 32.9264 30.0833 31.6666V6.33325C30.0833 5.07347 29.5829 3.86529 28.6921 2.97449C27.8013 2.0837 26.5931 1.58325 25.3333 1.58325Z" fill="url(#paint0_linear)"/>
<defs>
<linearGradient id="paint0_linear" x1="19" y1="1.58325" x2="19" y2="36.4166" gradientUnits="userSpaceOnUse">
<stop stop-color="#0085FF"/>
<stop offset="1" stop-color="#0049D6"/>
</linearGradient>
</defs>
</svg>
