<svg width="100" height="100" viewBox="0 0 100 100" fill="none" xmlns="http://www.w3.org/2000/svg">
<path d="M42.6367 42.3047C35.625 42.3047 29.9414 48.0078 29.9414 55C29.9414 63.7305 47.5195 79.6289 47.6953 79.7852C48.7109 80.7031 50.8203 81.6406 53.0469 79.8633C53.2227 79.7266 70.8984 64.707 70.8984 55C70.8984 47.9883 65.1953 42.3047 58.2031 42.3047C55.332 42.3047 52.6172 43.2617 50.4297 44.9414C48.2227 43.2617 45.5078 42.3047 42.6367 42.3047ZM53.9648 52.8906C54.7656 51.2891 56.3867 50.293 58.1641 50.293C60.7617 50.293 62.8516 52.4023 62.8516 54.9805C62.8516 55.293 63.0078 59.2188 50.4492 71.3086C38.3203 59.1406 37.9102 55 37.9102 54.9805C37.9102 52.3828 40.0195 50.293 42.5977 50.293C44.375 50.293 45.9961 51.2891 46.7969 52.8906C47.4805 54.2383 48.8672 55.0977 50.3711 55.0977C51.9141 55.0977 53.3008 54.2383 53.9648 52.8906Z" fill="#DCDCDC"/>
<path d="M87.4609 27.793L57.9687 3.08594C57.2461 2.48047 56.3477 2.14844 55.4102 2.14844H15.1172C12.9102 2.14844 11.1328 3.92578 11.1328 6.13281V93.8672C11.1328 96.0742 12.9102 97.8516 15.1172 97.8516H84.9023C87.1094 97.8516 88.8867 96.0742 88.8867 93.8672V30.8398C88.8867 29.668 88.3594 28.5352 87.4609 27.793ZM58.8086 14.1797L74.1406 27.0312H58.8086V14.1797ZM80.8984 89.8828H19.1016V10.1172H50.8008V31.0352C50.8008 33.2422 52.5977 35.0391 54.8047 35.0391H80.8984V89.8828Z" fill="#DCDCDC"/>
<path d="M44.8828 24.5898C44.8828 22.3828 43.1055 20.6055 40.8984 20.6055H29.6094C27.4023 20.6055 25.625 22.3828 25.625 24.5898C25.625 26.7969 27.4023 28.5742 29.6094 28.5742H40.8984C43.1055 28.5742 44.8828 26.7969 44.8828 24.5898Z" fill="#DCDCDC"/>
</svg>
