<svg width="38" height="38" viewBox="0 0 38 38" fill="none" xmlns="http://www.w3.org/2000/svg">
<path d="M31.6667 12.6666L19 20.5833L6.33332 12.6666V9.49992L19 17.4166L31.6667 9.49992V12.6666ZM31.6667 6.33325H6.33332C4.57582 6.33325 3.16666 7.74242 3.16666 9.49992V28.4999C3.16666 29.3398 3.50029 30.1452 4.09415 30.7391C4.68802 31.333 5.49347 31.6666 6.33332 31.6666H31.6667C32.5065 31.6666 33.312 31.333 33.9058 30.7391C34.4997 30.1452 34.8333 29.3398 34.8333 28.4999V9.49992C34.8333 8.66007 34.4997 7.85461 33.9058 7.26075C33.312 6.66688 32.5065 6.33325 31.6667 6.33325Z" fill="url(#paint0_linear)"/>
<defs>
<linearGradient id="paint0_linear" x1="19" y1="6.33325" x2="19" y2="31.6666" gradientUnits="userSpaceOnUse">
<stop stop-color="#0085FF"/>
<stop offset="1" stop-color="#0049D6"/>
</linearGradient>
</defs>
</svg>
