<svg width="37" height="37" viewBox="0 0 37 37" fill="none" xmlns="http://www.w3.org/2000/svg">
<g clip-path="url(#clip0)">
<path d="M18.4134 36.0133C28.3582 36.0133 36.42 27.9514 36.42 18.0066C36.42 8.06185 28.3582 0 18.4134 0C8.46859 0 0.406738 8.06185 0.406738 18.0066C0.406738 27.9514 8.46859 36.0133 18.4134 36.0133Z" fill="#0080FC"/>
<path d="M22.9402 18.7113H19.7272V30.4825H14.8591V18.7113H12.5438V14.5744H14.8591V11.8974C14.8591 9.98304 15.7684 6.98535 19.7705 6.98535L23.3764 7.00044V11.016H20.7601C20.3309 11.016 19.7275 11.2304 19.7275 12.1436V14.5783H23.3655L22.9402 18.7113Z" fill="white"/>
</g>
<defs>
<clipPath id="clip0">
<rect width="36.0133" height="36.0133" fill="white" transform="translate(0.406738)"/>
</clipPath>
</defs>
</svg>
