<svg width="39" height="39" viewBox="0 0 39 39" fill="none" xmlns="http://www.w3.org/2000/svg">
<g clip-path="url(#clip0)">
<rect width="38.1973" height="38.1973" rx="19.0986" fill="white"/>
<path d="M24.7909 10.1626H13.4064C11.5892 10.1626 10.1108 11.641 10.1108 13.4581V24.8427C10.1108 26.6598 11.5892 28.1386 13.4064 28.1386H24.7909C26.608 28.1386 28.0868 26.6602 28.0868 24.8427V13.4581C28.0868 11.641 26.6085 10.1626 24.7909 10.1626ZM19.0986 25.0682C15.8359 25.0682 13.1812 22.4136 13.1812 19.1504C13.1812 15.8876 15.8359 13.233 19.0986 13.233C22.3618 13.233 25.0164 15.8876 25.0164 19.1504C25.0164 22.4131 22.3614 25.0682 19.0986 25.0682ZM25.2067 14.4565C24.4343 14.4565 23.8062 13.8284 23.8062 13.0564C23.8062 12.2844 24.4343 11.6563 25.2067 11.6563C25.9786 11.6563 26.6068 12.2844 26.6068 13.0564C26.6068 13.8284 25.9786 14.4565 25.2067 14.4565Z" fill="#0080FC"/>
<path d="M19.0986 15.7334C17.2151 15.7334 15.6814 17.2663 15.6814 19.1498C15.6814 21.0342 17.2151 22.5674 19.0986 22.5674C20.983 22.5674 22.5154 21.0342 22.5154 19.1498C22.5154 17.2667 20.9826 15.7334 19.0986 15.7334Z" fill="#008CC8"/>
<path d="M19.0986 0C8.55117 0 0 8.55117 0 19.0986C0 29.6461 8.55117 38.1973 19.0986 38.1973C29.6461 38.1973 38.1973 29.6461 38.1973 19.0986C38.1973 8.55117 29.6461 0 19.0986 0ZM30.587 24.8424C30.587 28.0388 27.9873 30.6385 24.7909 30.6385H13.4064C10.2104 30.6385 7.61026 28.0388 7.61026 24.8424V13.4579C7.61026 10.2619 10.2104 7.66175 13.4064 7.66175H24.7909C27.9873 7.66175 30.587 10.2619 30.587 13.4579V24.8424Z" fill="#0080FC"/>
</g>
<defs>
<clipPath id="clip0">
<rect width="38.1973" height="38.1973" rx="19.0986" fill="white"/>
</clipPath>
</defs>
</svg>
