<svg width="38" height="38" viewBox="0 0 38 38" fill="none" xmlns="http://www.w3.org/2000/svg">
<path d="M19 18.2084C17.9502 18.2084 16.9434 17.7914 16.2011 17.049C15.4587 16.3067 15.0417 15.2999 15.0417 14.2501C15.0417 13.2003 15.4587 12.1934 16.2011 11.4511C16.9434 10.7088 17.9502 10.2917 19 10.2917C20.0498 10.2917 21.0567 10.7088 21.799 11.4511C22.5413 12.1934 22.9584 13.2003 22.9584 14.2501C22.9584 14.7699 22.856 15.2846 22.657 15.7649C22.4581 16.2451 22.1666 16.6815 21.799 17.049C21.4314 17.4166 20.9951 17.7082 20.5148 17.9071C20.0346 18.106 19.5198 18.2084 19 18.2084ZM19 3.16675C16.0605 3.16675 13.2414 4.33445 11.1629 6.41298C9.08439 8.49151 7.91669 11.3106 7.91669 14.2501C7.91669 22.5626 19 34.8334 19 34.8334C19 34.8334 30.0834 22.5626 30.0834 14.2501C30.0834 11.3106 28.9156 8.49151 26.8371 6.41298C24.7586 4.33445 21.9395 3.16675 19 3.16675Z" fill="url(#paint0_linear)"/>
<defs>
<linearGradient id="paint0_linear" x1="19" y1="3.16675" x2="19" y2="34.8334" gradientUnits="userSpaceOnUse">
<stop stop-color="#0085FF"/>
<stop offset="1" stop-color="#0049D6"/>
</linearGradient>
</defs>
</svg>
