<svg width="37" height="37" viewBox="0 0 37 37" fill="none" xmlns="http://www.w3.org/2000/svg">
<g clip-path="url(#clip0)">
<path d="M18.9933 36.0133C28.9381 36.0133 37 27.9514 37 18.0066C37 8.06185 28.9381 0 18.9933 0C9.04854 0 0.986694 8.06185 0.986694 18.0066C0.986694 27.9514 9.04854 36.0133 18.9933 36.0133Z" fill="#0080FC"/>
<path fill-rule="evenodd" clip-rule="evenodd" d="M18.3131 25.9043H19.7264C19.7264 25.9043 20.1533 25.8574 20.3713 25.6225C20.5719 25.4068 20.5655 25.0017 20.5655 25.0017C20.5655 25.0017 20.5379 23.1053 21.418 22.8261C22.2857 22.551 23.3998 24.6589 24.5807 25.4694C25.4737 26.0828 26.1522 25.9483 26.1522 25.9483L29.3098 25.9043C29.3098 25.9043 30.9616 25.8025 30.1784 24.5038C30.1142 24.3976 29.7222 23.5431 27.8307 21.7873C25.8508 19.9497 26.116 20.2469 28.5009 17.0682C29.9534 15.1324 30.534 13.9505 30.3527 13.4443C30.1797 12.9622 29.1114 13.0896 29.1114 13.0896L25.5562 13.1117C25.5562 13.1117 25.2926 13.0758 25.0972 13.1926C24.9062 13.3072 24.7832 13.5743 24.7832 13.5743C24.7832 13.5743 24.2206 15.0723 23.4701 16.3463C21.887 19.0346 21.254 19.1764 20.9953 19.0095C20.3934 18.6205 20.5437 17.4467 20.5437 16.6127C20.5437 14.0076 20.9388 12.9214 19.7743 12.6402C19.3878 12.5468 19.1034 12.4852 18.1151 12.4752C16.8466 12.4621 15.7729 12.4791 15.1649 12.777C14.7605 12.975 14.4485 13.4164 14.6385 13.4417C14.8735 13.4732 15.4057 13.5852 15.6878 13.9694C16.0521 14.465 16.0393 15.5782 16.0393 15.5782C16.0393 15.5782 16.2486 18.6449 15.5504 19.0259C15.0712 19.2872 14.4138 18.7537 13.0024 16.3149C12.2793 15.0656 11.7333 13.6847 11.7333 13.6847C11.7333 13.6847 11.628 13.4266 11.4402 13.2886C11.2123 13.1214 10.8939 13.0681 10.8939 13.0681L7.51551 13.0902C7.51551 13.0902 7.00835 13.1044 6.82218 13.3249C6.65655 13.521 6.80902 13.9267 6.80902 13.9267C6.80902 13.9267 9.45394 20.1147 12.4487 23.2331C15.1948 26.0921 18.3131 25.9043 18.3131 25.9043Z" fill="white"/>
</g>
<defs>
<clipPath id="clip0">
<rect width="36.0133" height="36.0133" fill="white" transform="translate(0.986694)"/>
</clipPath>
</defs>
</svg>
