<svg width="37" height="36" viewBox="0 0 37 36" fill="none" xmlns="http://www.w3.org/2000/svg">
<g clip-path="url(#clip0)">
<rect x="0.826782" width="35.9504" height="35.9504" rx="17.9752" fill="white"/>
<path d="M16.563 21.3426L22.4101 17.975L16.563 14.6074V21.3426Z" fill="#008CC8"/>
<path d="M18.802 0C8.87607 0 0.826782 8.04928 0.826782 17.9752C0.826782 27.9011 8.87607 35.9504 18.802 35.9504C28.7279 35.9504 36.7772 27.9011 36.7772 17.9752C36.7772 8.04928 28.7279 0 18.802 0ZM30.0337 17.9936C30.0337 17.9936 30.0337 21.639 29.5713 23.3969C29.3121 24.359 28.5534 25.1177 27.5913 25.3766C25.8334 25.8393 18.802 25.8393 18.802 25.8393C18.802 25.8393 11.7889 25.8393 10.0127 25.3582C9.05051 25.0993 8.29185 24.3404 8.03266 23.3782C7.56995 21.639 7.56995 17.9752 7.56995 17.9752C7.56995 17.9752 7.56995 14.33 8.03266 12.5722C8.29158 11.61 9.06888 10.8327 10.0127 10.5738C11.7705 10.111 18.802 10.111 18.802 10.111C18.802 10.111 25.8334 10.111 27.5913 10.5921C28.5534 10.851 29.3121 11.61 29.5713 12.5722C30.0524 14.33 30.0337 17.9936 30.0337 17.9936Z" fill="#0080FC"/>
</g>
<defs>
<clipPath id="clip0">
<rect x="0.826782" width="35.9504" height="35.9504" rx="17.9752" fill="white"/>
</clipPath>
</defs>
</svg>
